<?xml version="1.0" standalone="no"?>
<!DOCTYPE svg PUBLIC "-//W3C//DTD SVG 1.1//EN" "http://www.w3.org/Graphics/SVG/1.1/DTD/svg11.dtd" >
<svg xmlns="http://www.w3.org/2000/svg">
<metadata></metadata>
<defs>
<font id="bridgnorthnormal" horiz-adv-x="344" >
<font-face units-per-em="2048" ascent="1638" descent="-410" />
<missing-glyph horiz-adv-x="614" />
<glyph horiz-adv-x="0" />
<glyph unicode="&#xd;" horiz-adv-x="681" />
<glyph unicode=" "  horiz-adv-x="614" />
<glyph unicode="&#x09;" horiz-adv-x="614" />
<glyph unicode="&#xa0;" horiz-adv-x="614" />
<glyph unicode="!" d="M35 2q0 -16 8 -26.5t27 -24.5q10 -8 16 -14q33 -33 78 -33q31 0 74 26l14 11q25 12 41 27.5t16 31.5t-14 35.5t-35 34.5q-43 31 -100 30q-27 0 -70 -34q-25 -18 -40 -35t-15 -29zM80 1501q20 -489 24 -1296q27 16 64 16q24 0 57 -12q2 377 9.5 721t21.5 669q0 37 -14 37 q-6 0 -15 -6l-121 -80q-27 -18 -26 -49z" />
<glyph unicode="&#x22;" horiz-adv-x="407" d="M35 1479q0 -23 5 -38.5t13 -35.5q8 -12 10 -21q18 -47 43 -47q16 0 39 39q8 12 11 15q12 16 21 37.5t9 48.5q0 25 -8 53.5t-18 46.5q-25 45 -56 45q-14 0 -38 -51q-14 -25 -22.5 -49.5t-8.5 -42.5zM221 1479q0 -23 5 -38.5t14 -35.5q8 -12 10 -21q18 -47 43 -47 q16 0 39 39l10 15q12 16 21.5 37.5t9.5 48.5q0 25 -8.5 53.5t-18.5 46.5q-25 45 -55 45q-14 0 -39 -51q-14 -25 -22.5 -49.5t-8.5 -42.5z" />
<glyph unicode="&#x26;" horiz-adv-x="1116" d="M35 94q0 -86 62.5 -144.5t187.5 -58.5q49 0 103 11.5t103.5 29t92.5 38t71 40.5q12 -10 56 -45q76 -59 108 -92q41 -41 61.5 -78t20.5 -86q0 -12 -4 -35q-4 -27 -4 -41q0 -27 22 -26q16 0 27.5 9t24.5 30q14 18 20 24l17 17q27 27 39 44t12 40q0 74 -67.5 156.5 t-190.5 187.5q55 45 106 93t91 91t63.5 78t23.5 55q0 12 -5 22.5t-13 10.5q-31 0 -80 -31q-25 -14 -39 -20q-12 -4 -36.5 -51.5t-41.5 -69.5q-23 -31 -56.5 -65.5t-68.5 -65.5q-25 20 -63 53q-166 139 -229 205q74 53 113.5 102t39.5 109q0 74 -61 119q-53 43 -125 43 q-43 0 -89 -24t-85 -62.5t-62.5 -83.5t-23.5 -82q0 -68 94 -172q-98 -61 -156.5 -125t-58.5 -150zM180 162q0 37 29 70.5t90 82.5q61 -61 211 -184q53 -43 82 -68q-107 -53 -193 -53q-84 0 -151.5 44t-67.5 108zM264 604q0 29 27 51q10 8 27.5 12.5t33.5 4.5q49 0 80 -40 t31 -89q0 -35 -60 -80q-41 16 -94 72q-18 20 -31.5 38.5t-13.5 30.5z" />
<glyph unicode="'" horiz-adv-x="221" d="M35 1479q0 -23 5 -38.5t13 -35.5q8 -12 10 -21q18 -47 43 -47q16 0 39 39q8 12 11 15q12 16 21 37.5t9 48.5q0 25 -8 53.5t-18 46.5q-25 45 -56 45q-14 0 -38 -51q-14 -25 -22.5 -49.5t-8.5 -42.5z" />
<glyph unicode="," d="M35 2q0 -20 15.5 -32.5t49.5 -28.5q31 -14 47.5 -27.5t16.5 -34.5q0 -18 -12.5 -32.5t-34.5 -34.5q-39 -35 -39 -54q0 -10 8 -18t18 -8q16 0 34 13t46 40l15 14q49 47 79.5 90t30.5 74q0 57 -45 97t-104 40q-27 0 -70 -34q-25 -18 -40 -35t-15 -29z" />
<glyph unicode="-" horiz-adv-x="747" d="M35 397q0 -20 53 -28.5t119 -8.5q72 0 171 19.5t185 50.5q57 20 103.5 55t46.5 47q0 25 -33 25q-4 0 -51 -12q-78 -20 -137.5 -33.5t-108.5 -13.5q-43 0 -141 16q-61 10 -80 10t-47 -30q-8 -10 -13 -15l-10 -10q-27 -25 -42 -43t-15 -29z" />
<glyph unicode="." d="M35 2q0 -16 8 -26.5t27 -24.5q10 -8 16 -14q33 -33 78 -33q31 0 74 26l14 11q25 12 41 27.5t16 31.5t-14 35.5t-35 34.5q-43 31 -100 30q-27 0 -70 -34q-25 -18 -40 -35t-15 -29z" />
<glyph unicode="0" horiz-adv-x="1046" d="M35 393q0 -119 37 -217t104.5 -167.5t155.5 -107.5t188 -38q98 0 187.5 54t158 146.5t107.5 209t39 235.5q0 100 -30 192.5t-91.5 166t-154.5 115.5t-216 42q-98 0 -186 -52t-155.5 -142.5t-105.5 -204t-38 -232.5zM172 528q0 195 98 300.5t250 105.5q45 0 102.5 -34 t111.5 -103.5t89 -178t35 -247.5q0 -193 -88 -305.5t-205 -112.5q-84 0 -156.5 50t-126 134t-82 186.5t-28.5 204.5z" />
<glyph unicode="1" horiz-adv-x="540" d="M35 776q0 -23 10 -29t27 -6q20 0 63 37q49 39 72 39q16 0 16 -47v-348v-342l-78 -64q-10 -10 -10 -16q0 -12 21 -23l200 -104q23 -12 37 -12q16 0 27 12l67 76q18 20 19 37q0 25 -37 45l-70 39v358v555q0 14 -8 27.5t-22 13.5q-20 0 -45 -18.5t-64 -57.5q-47 -45 -72 -63 q-27 -20 -82 -51q-41 -23 -56 -34.5t-15 -23.5z" />
<glyph unicode="2" horiz-adv-x="962" d="M35 -100q0 -25 34.5 -25t88.5 25q39 18 70.5 27.5t84.5 9.5q57 0 172 -39t172 -39q90 0 177 43q41 20 67.5 42.5t26.5 47.5q0 8 -5 18t-12 10q-18 0 -59 -16t-61 -16q-45 0 -144 26q-35 10 -63 17l-45 10q-51 8 -76 17.5t-25 23.5q0 8 62 41q66 35 119 68.5t104 78.5 q8 6 22 19q51 45 79 74.5t52.5 70.5t38 96.5t13.5 131.5q0 88 -39 156.5t-103.5 115.5t-140.5 69.5t-149 22.5q-86 0 -154 -24.5t-127 -71.5q-80 -61 -126 -145.5t-46 -170.5q0 -80 23.5 -112.5t62.5 -32.5q14 0 31.5 9t38.5 26q20 14 31.5 27.5t11.5 29.5q0 25 -27 66 q-25 37 -25 61q0 39 12.5 85t39.5 81q31 35 79 55.5t101 20.5q61 0 123.5 -31t115 -84t83 -117.5t30.5 -128.5q0 -76 -33.5 -140t-93 -117.5t-126 -94.5t-171.5 -100q-27 -14 -98 -47q-104 -47 -160.5 -85t-56.5 -85z" />
<glyph unicode="3" horiz-adv-x="1046" d="M35 84q0 -35 19.5 -62.5t56.5 -56.5q61 -49 152 -79.5t165 -30.5q104 0 189 30.5t171 87.5q102 70 163 159t61 204q0 90 -23.5 158.5t-63.5 115.5t-88.5 76t-99.5 43q-39 12 -74.5 16.5t-76.5 4.5q-37 0 -37 6q0 12 26.5 34.5t86.5 63.5q70 49 106.5 81t36.5 52 q0 12 -6 22.5t-23 10.5q-23 0 -57 -10q-33 -8 -53 -9q-45 0 -127 15q-82 12 -121 12q-53 0 -106.5 -20.5t-102.5 -55.5q-45 -31 -71.5 -58.5t-26.5 -51.5q0 -8 12 -14.5t22 -6.5q14 0 35 21q29 27 65 42t107 15q23 0 57.5 -4t65.5 -11t52.5 -16.5t21.5 -19.5q0 -2 -43 -29 q-31 -20 -70 -44.5t-76 -53.5q-4 -2 -26 -21q-45 -33 -65.5 -55t-20.5 -49q0 -31 35 -31q27 0 57 21q27 18 61.5 28.5t104.5 10.5q59 0 120.5 -20.5t111.5 -61.5t80 -104.5t30 -147.5q0 -59 -31 -129t-80 -119q-41 -39 -89 -58.5t-93 -19.5q-68 0 -143.5 21.5t-130.5 64.5 q-29 23 -72 78q-27 31 -42 45t-30 14q-27 0 -61 -34q-41 -41 -41 -70z" />
<glyph unicode="4" horiz-adv-x="1040" d="M35 164q0 -23 45 -38t153 -24q33 -2 72 -3t109 -1h184v-49l-78 -63q-10 -10 -10 -17q0 -12 20 -22l201 -105q23 -12 37 -12q16 0 27 12l67 76q18 20 19 37q0 23 -37 45l-70 39v67q104 10 168 29t64 53q0 12 -5.5 23.5t-19.5 11.5q-31 0 -72 -10q-35 -8 -55 -8 q-53 0 -80 2v213q0 37 -14 37q-6 0 -15 -6l-120 -80q-27 -18 -27 -49v-99l-39 4q-201 23 -309 23l10 10q94 100 154.5 170t118 158t93.5 187.5t36 203.5q0 51 -35 51q-23 0 -37.5 -6t-32.5 -23q-6 -4 -8 -6l-21 -14q-29 -18 -42 -37.5t-13 -60.5q0 -59 -16.5 -131 t-46 -143.5t-68.5 -136t-84 -112.5q-41 -43 -131 -104q-47 -33 -69.5 -53.5t-22.5 -38.5z" />
<glyph unicode="5" horiz-adv-x="995" d="M35 68q0 -31 17.5 -55.5t49.5 -51.5q53 -45 135 -69.5t150 -24.5q102 0 193.5 38t183.5 99q88 59 142.5 184t54.5 252q0 98 -42 161t-112 106q-68 41 -137.5 55t-110.5 14q-55 0 -110.5 -15.5t-104.5 -39.5q12 18 37 51q53 76 74 98q12 14 42.5 19.5t69.5 5.5 q18 0 54 -16q40 -19 65 -19q43 0 90 6t89 21.5t69 39t27 56.5q0 12 -9.5 22.5t-24 10.5t-36.5 -12q-29 -14 -47 -15q-43 0 -117 15q-51 10 -90 15t-96 5q-16 0 -30.5 -8t-21.5 -19q-35 -51 -135 -168q-68 -82 -104.5 -130t-46.5 -81l-2 -6q-2 -8 -2 -12q0 -12 22 -12 q29 0 86 28q41 23 76 35.5t82 12.5q61 0 122.5 -17.5t114 -56.5t83 -99.5t30.5 -144.5q0 -66 -31.5 -162t-76.5 -141q-41 -39 -89.5 -58.5t-93.5 -19.5q-68 0 -140.5 21.5t-117.5 60.5q-23 20 -55 70q-16 25 -26.5 37t-24.5 12q-39 0 -78 -35l-10 -6q-16 -14 -26.5 -26.5 t-10.5 -30.5z" />
<glyph unicode="6" horiz-adv-x="962" d="M35 350q0 -100 37 -184t101.5 -144.5t148.5 -92t176 -31.5q150 0 258 102q76 70 123 147.5t47 167.5q0 215 -107.5 322.5t-273.5 107.5h-2q-82 0 -165 -28.5t-155 -79.5q18 131 107.5 201.5t206.5 70.5q23 0 67 -4q41 -2 78 -4q14 0 26.5 10.5t12.5 22.5q0 39 -33 67.5 t-78 28.5q-80 0 -160.5 -36t-154.5 -91q-133 -100 -196.5 -239.5t-63.5 -313.5zM180 426q0 55 18.5 87t69.5 71q39 31 82.5 50t102.5 19q82 0 136 -28.5t97 -83.5q41 -53 64.5 -119t23.5 -137q0 -150 -67.5 -221.5t-171.5 -71.5q-80 0 -143.5 42t-115.5 113q-96 137 -96 279 z" />
<glyph unicode="7" horiz-adv-x="954" d="M35 770q0 -8 10 -14t20.5 -6t23.5 10t36 31q23 23 31 28q41 31 97 50.5t112 19.5q80 0 247 -15q84 -8 136 -12q-61 -94 -179 -272q-219 -334 -321 -500q-14 -23 -51 -74q-31 -45 -45.5 -68.5t-14.5 -33.5q0 -23 13.5 -31t31.5 -8q16 0 37 28.5t51 84.5q29 49 39 65 q102 156 289 445q166 256 262 401q8 12 25 33q20 27 27.5 39t7.5 18q0 14 -6.5 21.5t-24.5 7.5q-25 0 -84 -10q-45 -8 -62 -9q-49 0 -137 13q-111 14 -186 14q-66 0 -133.5 -36t-141.5 -93l-10 -8q-49 -39 -74.5 -65.5t-25.5 -53.5z" />
<glyph unicode="8" horiz-adv-x="927" d="M35 217q0 -74 31.5 -136.5t89 -109.5t132 -71.5t158.5 -24.5q160 0 293 121q68 61 111 133t43 141q0 49 -23.5 102.5t-64.5 105.5t-95.5 97.5t-113.5 75.5q70 41 106.5 87t36.5 120q0 43 -45 100q-20 27 -56 47.5t-56 20.5q-51 0 -105.5 -11t-95.5 -34q-57 -33 -92 -82 t-35 -100q0 -55 28.5 -104.5t77.5 -78.5q-66 -23 -125 -64.5t-104 -97t-70.5 -117t-25.5 -120.5zM180 281q0 51 28 101t69.5 91t84.5 64.5t70 23.5q10 0 60.5 -32.5t82.5 -61.5q72 -63 118 -131t46 -131q0 -109 -70.5 -167t-211.5 -58q-55 0 -101.5 29.5t-89.5 80.5 q-39 47 -62.5 95t-23.5 96zM379 856q0 35 20.5 54.5t67.5 19.5t87 -42t40 -89q0 -43 -23.5 -71t-48.5 -28q-8 0 -41 21q-33 20 -51 41q-51 55 -51 94z" />
<glyph unicode="9" horiz-adv-x="1009" d="M41 565q0 -109 36 -188.5t96 -129.5t135 -73.5t155 -23.5q88 0 158.5 20t138.5 68q-49 -102 -121 -172q-37 -35 -74 -52.5t-73 -17.5q-12 0 -39 4q-29 4 -41 4q-35 0 -88 -35l-5 -2q-27 -18 -41 -32.5t-14 -32.5q0 -16 94 -17q80 0 167 37t159 90q137 102 211 244.5 t74 310.5q0 80 -23.5 152t-64.5 133q-57 82 -148.5 125t-226.5 43q-76 0 -154 -33t-131 -82q-72 -68 -126 -158t-54 -182zM186 623q0 76 25 133t68 98q82 72 190 72q80 0 143.5 -42t114.5 -114q86 -123 86 -283q0 -57 -15.5 -120.5t-27.5 -71.5q-41 -25 -77 -37t-95 -12 q-86 0 -173 34.5t-126 84.5q-51 68 -82 129t-31 129z" />
<glyph unicode=":" d="M35 2q0 -16 8 -26.5t27 -24.5q10 -8 16 -14q33 -33 78 -33q31 0 74 26l14 11q25 12 41 27.5t16 31.5t-14 35.5t-35 34.5q-43 31 -100 30q-27 0 -70 -34q-25 -18 -40 -35t-15 -29zM35 618q0 -16 8 -26t27 -25q10 -8 16 -14q33 -33 78 -33q31 0 74 27l14 10q25 14 41 28.5 t16 31t-14 36t-35 33.5q-43 31 -100 31q-27 0 -70 -35q-25 -18 -40 -34.5t-15 -29.5z" />
<glyph unicode=";" d="M35 2q0 -20 15.5 -32.5t49.5 -28.5q31 -14 47.5 -27.5t16.5 -34.5q0 -18 -12.5 -32.5t-34.5 -34.5q-39 -35 -39 -54q0 -10 8 -18t18 -8q16 0 34 13t46 40l15 14q49 47 79.5 90t30.5 74q0 57 -45 97t-104 40q-27 0 -70 -34q-25 -18 -40 -35t-15 -29zM35 618q0 -16 8 -26 t27 -25q10 -8 16 -14q33 -33 78 -33q31 0 74 27l14 10q25 14 41 28.5t16 31t-14 36t-35 33.5q-43 31 -100 31q-27 0 -70 -35q-25 -18 -41 -35q-14 -16 -14 -29z" />
<glyph unicode="?" horiz-adv-x="1087" d="M39 1286q0 -55 27.5 -106.5t52.5 -63.5q80 -39 110 -39q12 0 12.5 8.5t-10.5 26.5q-18 35 -30.5 80t-12.5 129q0 70 41 134.5t95 64.5q162 0 265 -31t159.5 -85t78 -128t21.5 -170q0 -121 -37 -228.5t-113 -142.5q-18 -8 -49 -22q-98 -43 -151.5 -85t-53.5 -118v-305 q27 16 64 16q24 0 57 -12v276q0 49 38 82t126 82q72 41 122 75t97 86t76 129t29 177q0 117 -22.5 207t-82 157.5t-170 106.5t-282.5 39q-162 0 -257.5 -29.5t-138.5 -79t-52 -101.5t-9 -130zM375 2q0 -16 8 -26.5t27 -24.5q10 -8 16 -14q33 -33 78 -33q31 0 74 26l14 11 q25 12 41 27.5t16 31.5t-14 35.5t-35 34.5q-43 31 -100 30q-27 0 -70 -34q-25 -18 -40 -35t-15 -29z" />
<glyph unicode="A" horiz-adv-x="1642" d="M-109 -338q1 -43 50 -43q92 0 185 67.5t173 180.5t138.5 247t84.5 259h805v-295l-80 -64q-10 -10 -10 -16q0 -10 20 -23l201 -104q23 -12 35 -12q16 0 29 12l67 76q18 20 19 37q0 25 -37 45l-68 41v1122l35 22q29 18 29 35q0 20 -39 47q-23 14 -86 56q-74 43 -115 71 q-152 102 -282 158.5t-289 56.5q-123 0 -225.5 -28.5t-202.5 -83.5q-123 -66 -198 -155t-75 -195q0 -59 25 -115q10 -23 28.5 -39t38.5 -16q16 0 29 10l78 63q23 18 22 41q0 20 -22 43q-23 27 -34 46.5t-11 39.5q0 141 106.5 209t294.5 68q184 0 351 -66 q-279 -170 -423.5 -416.5t-166.5 -582.5q-8 -119 -36 -248t-78 -243.5t-126 -189.5t-172 -83q-20 -2 -44 -11.5t-24 -23.5zM543 510q20 176 44.5 295t76 228.5t144.5 205.5t243 178q176 -100 276 -278v-629h-784z" />
<glyph unicode="B" horiz-adv-x="1460" d="M35 43q0 -6 12 -15.5t19 -9.5q25 0 67 17q47 18 74 18q61 0 120.5 -16.5t149.5 -50.5q92 -35 153.5 -52.5t125.5 -17.5q139 0 262 50t215 137t142 196t50 221q0 104 -33.5 193.5t-96 155t-147.5 101.5t-185 36q100 57 160.5 130.5t60.5 159.5q0 129 -94 224 q-53 53 -111.5 75.5t-128.5 22.5q-57 0 -124 -13.5t-127 -34t-107.5 -46t-67.5 -45.5v43q0 39 -41 63l-55 33q-27 18 -54 18q-12 0 -26 -14l-113 -90q-12 -12 -12 -21q0 -23 16 -32l109 -68v-1180q0 -14 4 -30q-45 -6 -90 -24.5t-76 -45.5q-51 -41 -51 -88zM319 203l50 35 q55 40 55 118v1035q14 20 48 44.5t81 48t96 38t92 14.5q106 0 184.5 -62.5t78.5 -181.5q0 -72 -48.5 -147.5t-124.5 -122.5q-41 -25 -126 -51q-63 -20 -92 -38t-29 -54q0 -12 10 -24.5t24 -12.5q10 0 47 22.5t66 34.5t60 12q104 0 193 -40t159 -123q59 -72 93 -137.5 t34 -153.5q0 -76 -20.5 -152t-61.5 -138.5t-102.5 -101t-141.5 -38.5q-76 0 -149.5 22.5t-180.5 65.5q-96 41 -161.5 61.5t-133.5 26.5z" />
<glyph unicode="C" horiz-adv-x="1783" d="M35 709q0 -195 80 -350.5t223 -274.5q123 -102 260 -161.5t295 -59.5q238 0 435.5 93t332.5 267q20 25 45 62t25 47q0 16 -21 16q-12 0 -33 -6l-86 -27q-16 -6 -27.5 -24.5t-25.5 -54.5q-20 -51 -40.5 -86t-61.5 -58h-2q-78 -47 -156 -69.5t-231 -22.5q-147 0 -285 39 q59 41 103 74.5t75 66.5q33 39 41 76t8 127v799q0 55 9.5 85.5t25.5 45.5q39 35 93 66.5t110 58.5q84 -49 158.5 -116t132.5 -142l14 -19q20 -29 34.5 -41t35.5 -14q8 0 26.5 5t30.5 11l67 35q23 12 23 33q0 14 -10 31.5t-25 35.5l-6 7q-41 55 -122 116.5t-187.5 114.5 t-224 86t-232.5 33q-199 0 -366.5 -70.5t-289.5 -195.5t-186.5 -290t-64.5 -349zM223 764q0 156 52.5 297t143.5 249.5t205.5 170t233.5 61.5q152 0 309 -74q-33 -23 -147 -79q-61 -33 -105.5 -57.5t-78.5 -45.5l-13 -8q-41 -27 -61.5 -42t-20.5 -30q0 -18 9.5 -27.5 t27.5 -17.5q31 -14 31 -33v-868q0 -119 -57 -158q-29 -20 -74 -34q-217 88 -336 274t-119 422z" />
<glyph unicode="D" horiz-adv-x="1830" d="M35 57q0 -18 6 -34.5t25 -18.5q25 0 59 16q39 18 70 19q41 0 76.5 -9.5t86.5 -27.5q39 -14 64 -22q127 -43 235.5 -69t206.5 -26q190 0 361.5 69t299.5 190.5t199.5 277.5t71.5 323q0 188 -98.5 365.5t-270.5 300.5q-131 94 -307 146.5t-344 52.5q-113 0 -241.5 -35 t-243.5 -101.5t-185.5 -156.5t-70.5 -195q0 -39 18.5 -89t40.5 -50q20 0 56 21q29 16 49 22q16 4 29.5 20.5t13.5 34.5q0 20 -17 64q-18 41 -18 61q0 88 50 147.5t130 93.5t170 47t174 13q88 0 168 -12q-68 -47 -155 -104.5t-148 -96.5l-12 -8q-41 -27 -61.5 -42t-20.5 -30 q0 -18 9 -25t30 -13q14 -6 22 -11.5t8 -17.5v-860q0 -61 -12 -89t-43 -48l-2 -3q-2 0 -4 -2q-59 20 -108.5 29.5t-108.5 9.5q-104 0 -181 -41t-77 -86zM580 121q72 49 125 106q31 33 38 70t7 131v762q0 55 9 86t25 45q35 31 98.5 75t116.5 77q145 -37 260 -114t192 -180.5 t117 -224t40 -245.5q0 -129 -33 -254q-33 -127 -99.5 -231.5t-170 -166t-236.5 -61.5q-121 0 -207 22.5t-194 67.5q-66 27 -88 35z" />
<glyph unicode="E" horiz-adv-x="1783" d="M35 709q0 -195 80 -350.5t223 -274.5q123 -102 260 -161.5t295 -59.5q238 0 435.5 93t332.5 267q20 25 45 62t25 47q0 16 -21 16q-12 0 -33 -6l-86 -27q-16 -6 -27.5 -24.5t-25.5 -54.5q-20 -51 -40.5 -86t-61.5 -58h-2q-78 -47 -156 -69.5t-231 -22.5q-147 0 -285 39 q59 41 103 74.5t75 66.5q33 39 41 76t8 127v463h242q66 0 98 39l51 65l2 4q12 16 13 25q0 23 -47 22h-359v181q0 55 9.5 85.5t25.5 45.5q39 35 93 66.5t110 58.5q84 -49 158.5 -116t132.5 -142l14 -19q20 -29 34.5 -41t35.5 -14q8 0 26.5 5t30.5 11l67 35q23 12 23 33 q0 14 -10 31.5t-25 35.5l-6 7q-41 55 -122 116.5t-187.5 114.5t-224 86t-232.5 33q-199 0 -366.5 -70.5t-289.5 -195.5t-186.5 -290t-64.5 -349zM223 764q0 156 52.5 297t143.5 249.5t205.5 170t233.5 61.5q152 0 309 -74q-33 -23 -147 -79q-61 -33 -105.5 -57.5 t-78.5 -45.5l-13 -8q-41 -27 -61.5 -42t-20.5 -30q0 -18 9.5 -27.5t27.5 -17.5q31 -14 31 -33v-868q0 -119 -57 -158q-29 -20 -74 -34q-217 88 -336 274t-119 422z" />
<glyph unicode="F" horiz-adv-x="1214" d="M35 6q0 -106 33.5 -180t81 -114t91.5 -57t62 -17q66 0 125 26.5t105.5 64.5t74 70.5t56.5 67.5v2q86 115 126.5 265.5t40.5 352.5v410h37q43 0 82 39l60 59q20 20 20 33q0 33 -131 33h-68v295q0 29 49.5 64.5t145.5 62.5q25 6 40 20.5t34 38.5q14 14 16 19q10 12 35 32 q29 25 29 33q0 18 -37 19q-27 0 -109 -17q-98 -18 -137 -18q-27 0 -84 8q-51 8 -99 13t-116 5q-109 0 -186.5 -25.5t-143.5 -76.5q-76 -59 -120 -147.5t-44 -194.5q0 -49 39 -85t64 -36q18 0 43 27q16 18 26 24l3 2q27 16 38 28.5t11 31.5q0 12 -10.5 19t-34.5 20 q-39 16 -61.5 37.5t-22.5 64.5q0 33 13 60.5t46 50t91.5 35t146.5 12.5q57 0 161 -13q90 -12 142 -14q-16 -12 -37 -25.5t-53 -33.5l-21 -13q-4 -2 -20 -12q-35 -18 -55.5 -33.5t-20.5 -35.5q0 -23 9 -33t28 -21q16 -8 22 -16v-172h-88q-72 0 -108 -55l-31 -50 q-12 -20 -12 -32q0 -27 53 -27h186v-16q-10 -8 -30 -23q-45 -31 -91.5 -65.5t-93.5 -71.5q-131 -106 -213 -207q-98 -119 -143 -257t-45 -251zM190 129q0 92 55.5 219t160.5 242q57 63 117.5 112.5t127.5 77.5v-510q0 -111 -12 -200.5t-39 -158.5t-71.5 -105.5t-110.5 -36.5 q-27 0 -64 14t-74.5 52t-63.5 111.5t-26 182.5z" />
<glyph unicode="G" horiz-adv-x="1761" d="M35 711q0 -195 80 -350.5t223 -274.5q123 -102 260 -161.5t295 -59.5q121 0 265.5 58.5t275.5 162.5t211.5 240.5t80.5 285.5q0 47 -18 117t-61 141.5t-121 120.5t-189 49q-143 0 -213.5 -27.5t-134.5 -80.5v252q0 55 9.5 85.5t25.5 45.5q39 35 93 66.5t110 58.5 q18 -10 48 -32t99 -75l27 -20q10 -8 35 -31q43 -43 67 -45q10 0 33 7t31 13l43 33q23 16 22 33q-2 16 -19.5 34.5t-39.5 35.5q-72 55 -131.5 94t-131 67.5t-162.5 45t-206 16.5q-199 0 -366.5 -70.5t-289.5 -195.5t-186.5 -290t-64.5 -349zM223 766q0 156 52.5 297 t143.5 249.5t205.5 170t233.5 61.5q152 0 309 -74q-33 -23 -147 -79q-61 -33 -105.5 -57.5t-78.5 -45.5l-13 -8q-41 -27 -61.5 -42t-20.5 -30q0 -18 9.5 -27.5t27.5 -17.5q31 -14 31 -33v-868q0 -119 -57 -158q-29 -20 -74 -34q-217 88 -336 274t-119 422zM762 41 q59 41 103 75t75 66q33 37 41 75t8 128v475l4 2q43 37 88 55.5t129 18.5q86 0 151.5 -36t105.5 -92t59.5 -117.5t19.5 -115.5q0 -68 -12 -152.5t-59.5 -183t-152.5 -168t-275 -69.5q-147 0 -285 39z" />
<glyph unicode="H" horiz-adv-x="1562" d="M35 -6q0 -10 20 -23l201 -104q23 -12 35 -12q16 0 28 12l68 76q18 20 19 37q0 25 -37 45l-68 41v704q80 82 216 136.5t259 54.5q39 0 107.5 -16.5t148.5 -68t137.5 -157t57.5 -268.5q0 -90 -29 -167t-127 -180q-31 -33 -75 -61.5t-107 -65.5q-41 -25 -60.5 -38t-19.5 -19 q0 -16 11 -28.5t28 -12.5q29 0 92.5 24.5t93.5 24.5q43 0 123 -28q92 -31 150 -31q33 0 67.5 16.5t75.5 46.5q37 27 57.5 48.5t20.5 42.5q0 8 -12.5 18t-24.5 10q-18 0 -59 -20q-41 -23 -60 -23q-25 0 -46 8.5t-48 24.5q-33 18 -58.5 27.5t-58.5 9.5q-29 0 -39 -4 q0 10 23 26q78 55 129 120t75.5 126.5t33 114.5t8.5 102q0 170 -69 278.5t-165 161t-180 70t-133 17.5q-53 0 -124 -17.5t-148.5 -50.5t-147.5 -74t-123 -86v178q0 63 1 110.5t4 94.5t12.5 86t23.5 60q39 53 113.5 81.5t162.5 28.5q78 0 156 -35t144 -92q14 -14 27 -23.5 t28 -9.5q16 0 31 15q18 18 59 43q14 8 24.5 25.5t10.5 31.5q0 12 -8 19q-100 63 -193.5 97t-187.5 34q-133 0 -243 -54.5t-200 -134.5q-84 -72 -112.5 -157.5t-28.5 -258.5v-927l-80 -64q-10 -10 -10 -16z" />
<glyph unicode="I" horiz-adv-x="1271" d="M35 160q0 -12 25.5 -53t75.5 -87.5t128 -79t178 -32.5q127 0 220.5 29.5t171.5 89.5q100 76 157.5 195.5t57.5 289.5v932q18 10 43 39l4 4q31 35 92 76q49 33 49 47q0 20 -10 27.5t-31 7.5q-27 0 -76 -13q-61 -14 -100 -14q-33 0 -100 10q-70 8 -103 8q-113 0 -211 -32.5 t-168 -94.5q-31 -27 -62.5 -61.5t-58 -72.5t-43 -76.5t-16.5 -71.5q0 -23 11.5 -37t27.5 -14q23 0 47.5 9t48.5 25q2 2 19 13q37 23 37 43q-2 8 -9 34q-10 45 -10 64q0 61 64.5 98t193.5 37q57 0 164 -12q84 -10 139 -12q-12 -8 -24 -21q-39 -31 -62 -45q-4 -2 -20 -12 q-35 -18 -55.5 -33.5t-20.5 -36.5q0 -23 9 -33t28 -20q16 -8 22 -17v-868q0 -205 -68.5 -293t-207.5 -88q-82 0 -142.5 18.5t-102.5 47t-65.5 57.5t-52.5 70q-41 57 -61 57q-31 0 -70 -27q-6 -6 -10 -8q-53 -37 -53 -63z" />
<glyph unicode="J" horiz-adv-x="997" d="M-34.5 -320.5q22.5 -13.5 46.5 -13.5q137 0 263 66.5t243 189.5q119 123 187.5 264.5t68.5 327.5v932q18 10 43 39l4 4q31 35 92 76q49 33 50 47q0 20 -10.5 27.5t-30.5 7.5q-27 0 -76 -13q-61 -14 -101 -14q-33 0 -100 10q-70 8 -102 8q-109 0 -203 -35.5t-166 -101.5 q-63 -55 -100 -117.5t-37 -128.5q0 -35 5 -65.5t19 -30.5q25 0 64 29q14 8 18 12l13 8q27 16 40 28.5t13 29.5q-2 10 -12 39q-14 37 -15 51q0 66 53.5 105.5t178.5 39.5q57 0 164 -12q84 -10 139 -12q-12 -8 -25 -21q-39 -31 -61 -45q-4 -2 -21 -12q-35 -18 -55 -33.5 t-20 -36.5q0 -23 9 -33t27 -20q16 -8 23 -16v-963q0 -102 -32 -187t-85 -146.5t-118.5 -93.5t-133.5 -32q-23 0 -71 4q-55 4 -93 4q-16 0 -27 -12t-26 -35q-8 -16 -14 -22q-8 -10 -25 -27q-26 -26 -26 -42q0 -15 22.5 -28.5z" />
<glyph unicode="K" horiz-adv-x="1441" d="M35 -12q0 -10 20 -23l201 -104q23 -12 35 -13q16 0 28 13l68 76q18 20 19 36q0 23 -37 45l-68 41v258l336 213q98 -31 164.5 -103.5t97.5 -160.5q25 -68 59.5 -139.5t77.5 -133t92.5 -100t98.5 -38.5q18 0 37 22q12 14 20 20.5t25 16.5q25 14 35 24.5t10 26.5 q0 25 -10.5 34t-32.5 17q-33 12 -51 27q-39 35 -81 101.5t-65 121.5q-20 53 -42.5 101.5t-56.5 102.5t-79 103.5t-102 81.5l426 271q0 43 -38 99t-100 126q-74 82 -154.5 126t-179.5 44q-137 0 -231 -53.5t-217 -161.5q-12 -12 -39 -35q0 137 24.5 215t116.5 137 q53 35 146.5 52.5t187.5 17.5q92 0 217 -59.5t205 -159.5q10 -12 25.5 -22.5t29.5 -10.5q12 0 23.5 2t17.5 8q10 10 45 23q23 8 31 12q4 2 6 4q29 14 29 33q0 14 -35 51q-37 39 -95 79t-131 75t-155 55.5t-162 20.5q-135 0 -238.5 -40t-195.5 -106q-10 -8 -37 -26 q-57 -37 -92 -68t-67.5 -79t-52 -118.5t-19.5 -171.5v-927l-80 -64q-10 -10 -10 -16zM301 399v580l25 25q100 106 179 159.5t191 53.5q164 0 265 -136q37 -45 60 -91t34 -107z" />
<glyph unicode="L" horiz-adv-x="1273" d="M37 -106q0 -8 12 -17.5t23 -9.5q27 0 45 8t43 27q41 29 82 45t118 16q57 0 113.5 -12t142.5 -39q88 -27 145.5 -40t119.5 -13q51 0 107 30.5t105.5 77.5t80 94.5t30.5 77.5q0 12 -8 24.5t-18 12.5q-18 0 -54 -47q-25 -33 -41 -47q-33 -31 -75.5 -46.5t-83.5 -15.5 q-53 0 -105.5 13.5t-132.5 40t-130 39t-103 12.5q-33 0 -101 -21q-39 -10 -57 -14q8 29 19.5 45.5t29.5 36.5q16 18 27.5 35.5t20.5 48.5t15.5 84t6.5 133v647q0 96 9 165t39 122t90 84t157 31q68 0 139.5 -41t130.5 -106.5t94 -140.5t35 -138q0 -41 -10.5 -81t-32 -75 t-57 -56.5t-82.5 -21.5q-27 0 -63 14.5t-62 36.5q-10 10 -27 29q-25 31 -41 31q-23 0 -57 -39l-4 -4q-43 -47 -43 -76q0 -10 21.5 -22.5t57 -25.5t72.5 -21.5t64 -8.5q80 0 151.5 31t127 84t86 118.5t30.5 131.5q0 127 -42 219t-111.5 148.5t-154.5 83t-173 26.5 q-133 0 -233.5 -49t-164 -128t-93 -172t-29.5 -182v-501q0 -397 -80 -520q-18 -29 -64 -82q-57 -66 -57 -90z" />
<glyph unicode="M" horiz-adv-x="2076" d="M35 1513q0 -23 16 -32l109 -68v-1339l-80 -64q-10 -10 -10 -16q0 -10 20 -23l201 -104q23 -12 35 -12q16 0 28 12l68 76q18 20 18 37q0 25 -37 45l-67 41v1277q2 4 2 7q18 33 35.5 55t48.5 42.5t82 33t127 12.5q25 0 48 -7t42.5 -27.5t31 -60.5t11.5 -102v-1222l-80 -64 q-10 -10 -10 -16q0 -10 20 -23l201 -104q23 -12 35 -12q16 0 28 12l68 76q18 20 18 37q0 25 -36 45l-68 41v1267q53 57 152.5 100.5t226.5 43.5q250 -2 392 -201t142 -551q0 -152 -89 -297t-238 -299q-25 -25 -59.5 -47.5t-98.5 -54.5q-66 -37 -99.5 -60.5t-33.5 -46.5 q0 -14 16.5 -22.5t34.5 -8.5q25 4 51 15q14 6 26.5 8t35.5 2q43 0 147 -29q117 -30 174 -30h4q35 0 80 17t88 44t71 57.5t28 55.5q0 10 -11.5 21t-23.5 11q-18 0 -68 -26q-51 -27 -69 -27q-35 0 -84 27q-45 24 -77 24h-3q-49 0 -111 -16q6 14 35 38.5t57 45.5l2 2 q96 76 164 141.5t122 148.5t86 189.5t32 241.5q0 362 -175 558t-476 196q-119 0 -238 -55.5t-219 -133.5q-12 113 -68.5 155t-177.5 42q-127 0 -221 -49.5t-131 -104.5v66q0 39 -41 63l-55 33q-27 18 -54 18q-12 0 -26 -14l-113 -90q-12 -12 -12 -21z" />
<glyph unicode="N" horiz-adv-x="1738" d="M35 1513q0 -23 16 -32l109 -68v-1339l-80 -64q-10 -10 -10 -16q0 -10 20 -23l201 -104q23 -12 35 -12q16 0 28 12l68 76q18 20 18 37q0 25 -37 45l-67 41v1277q78 68 216 115t294 47q125 0 244.5 -53t216 -153.5t153 -243t56.5 -314.5q0 -156 -86.5 -314.5t-223.5 -299.5 q-35 -37 -131 -96q-59 -39 -89 -63.5t-30 -49.5q0 -14 13.5 -23.5t31.5 -9.5q25 4 72 19q71 22 106 22h3q43 0 123 -28q92 -31 149 -31q35 0 78 13.5t83 35t64.5 47t24.5 49.5q0 27 -29 27q-18 0 -57 -12q-39 -14 -57 -15q-35 0 -103 31q-66 31 -98 31q-41 0 -119 -17 q12 8 25 19q20 18 26 22q88 70 161 144.5t129 168t89 207t33 248.5q0 176 -66.5 319.5t-182.5 242t-260 148.5t-296 50q-68 0 -144.5 -17.5t-151.5 -44t-144.5 -58t-122.5 -62.5v80q0 39 -41 63l-55 33q-27 18 -54 18q-12 0 -26 -14l-113 -90q-12 -12 -12 -21z" />
<glyph unicode="O" horiz-adv-x="1898" d="M35 713q0 -180 62.5 -336t177 -270.5t273.5 -177t345 -62.5q184 0 360.5 72.5t314.5 196.5t217 279.5t79 313.5q0 199 -61.5 361.5t-175.5 279.5t-270.5 178.5t-344.5 61.5q-141 0 -280.5 -43t-268.5 -121q-199 -119 -313.5 -304.5t-114.5 -428.5zM223 768q0 158 45 292 t130 232.5t205.5 151.5t270.5 53q170 0 317.5 -61.5t255 -170t167 -252t59.5 -300.5q0 -342 -157.5 -525.5t-468.5 -183.5q-193 0 -347.5 58.5t-261 163t-161 243.5t-54.5 299z" />
<glyph unicode="P" horiz-adv-x="1746" d="M35 1507q0 -16 16 -32l109 -103v-1745q0 -53 18 -53q6 0 21 10l92 78q45 37 45 105v221q98 -57 197.5 -91t207.5 -34q184 0 360.5 72.5t314.5 196.5t217 279.5t79 313.5q0 199 -61.5 361.5t-175 279.5t-270.5 178.5t-345 61.5q-94 0 -171 -17.5t-137 -47.5t-108.5 -64.5 t-107.5 -85.5v127q0 39 -41 63l-55 33q-27 18 -54 18q-12 0 -26 -14l-113 -90q-12 -12 -12 -21zM336 133v1172q84 70 178 109.5t205 39.5q193 0 344 -55.5t252.5 -155.5t154 -236.5t52.5 -297.5q0 -342 -158 -525.5t-469 -183.5q-133 0 -242.5 47t-216.5 129q-16 12 -30 12 q-16 0 -25 -12q-25 -39 -45 -43z" />
<glyph unicode="Q" horiz-adv-x="1898" d="M35 702q0 -178 69.5 -328.5t193.5 -258t290 -166t354 -58.5q170 0 334 68q90 -145 173 -227t179 -82q53 0 107.5 28.5t54.5 73.5q0 12 -12.5 24.5t-22.5 12.5q-16 0 -37 -4q-14 -4 -22 -4q-74 0 -130.5 69.5t-121.5 198.5q94 63 171 142t133 169.5t86 181.5t30 177 q0 199 -61.5 363.5t-175.5 282.5t-271.5 180.5t-345.5 62.5q-111 0 -184.5 -7.5t-124 -21.5t-84 -32.5t-89.5 -53.5q-43 -29 -65 -41q-197 -117 -312.5 -310.5t-115.5 -439.5zM240 756q0 162 39.5 298t120.5 237.5t205 156.5t288 55h4q170 0 313.5 -63.5t247 -175 t159.5 -257t56 -305.5q0 -170 -68.5 -326.5t-199.5 -252.5q-57 109 -94 153l-4 7q-80 98 -136.5 145t-134.5 47q-61 0 -108 -31.5t-47 -66.5q0 -39 28 -39q8 0 29 4q23 4 31 4q53 0 105 -66.5t136 -211.5l19 -31q-90 -27 -180 -27q-193 0 -345.5 55.5t-255 157t-155.5 237.5 t-53 296z" />
<glyph unicode="R" horiz-adv-x="1517" d="M35 1511q0 -23 16 -32l109 -68v-1339l-80 -64q-10 -10 -10 -16q0 -10 20 -23l201 -104q23 -12 37 -12t26 12l68 76q18 20 18 36q0 25 -37 46l-67 38v134v182q80 -45 175 -67.5t220 -22.5h23q168 -78 241 -203q51 -88 128 -149.5t167 -61.5q49 0 103.5 36t54.5 75 q0 16 -18.5 26t-40.5 10q-63 0 -121 45.5t-105 118.5q-27 43 -64.5 86t-78.5 74q98 39 182 101.5t147.5 141.5t98.5 172t35 191q0 137 -46 256t-135.5 210t-220.5 141.5t-293 50.5q-127 0 -246.5 -51.5t-205.5 -151.5v117q0 39 -41 63l-55 33q-27 18 -54 18q-12 0 -26 -14 l-113 -90q-12 -12 -12 -21zM336 483v869q70 61 185 94t224 33q115 0 214.5 -44t175 -122t116.5 -179.5t41 -211.5q0 -109 -44 -207.5t-120.5 -171t-174 -113.5t-199.5 -41q-125 0 -239 21.5t-179 72.5z" />
<glyph unicode="S" horiz-adv-x="1409" d="M35 211q0 -14 16 -43q49 -72 124 -127t166 -91t188.5 -54.5t191.5 -18.5q98 0 194.5 28.5t184.5 90.5q115 84 192.5 207t79.5 237q0 119 -54 213.5t-142.5 165t-184.5 120.5t-239 116q-188 86 -276.5 144t-88.5 136q0 88 67.5 143.5t166.5 55.5q113 0 226.5 -69.5 t164.5 -172.5q18 -35 57 -35q20 2 61 46q18 18 27 24q23 16 23 47q0 20 -15 39q-94 104 -220 150.5t-265 46.5q-90 0 -172 -23.5t-144.5 -68.5t-97.5 -108.5t-35 -137.5q0 -80 41 -145.5t111 -119t146.5 -94.5t201.5 -98q125 -59 202 -99t145.5 -92.5t108.5 -118t40 -143.5 q-2 -90 -40 -169.5t-114 -135.5q-57 -41 -138 -63.5t-165 -22.5q-72 0 -151.5 30t-151.5 77t-129 102.5t-90 108.5q-12 20 -27.5 34.5t-32.5 14.5q-6 0 -16 -6q-12 -8 -47 -29q-37 -23 -49 -31q-41 -27 -41 -61z" />
<glyph unicode="T" horiz-adv-x="1783" d="M35 1174q0 -39 4 -66t16 -27h2h2l121 60q31 14 35 43v4l2 4q0 8 -6 18q-12 18 -12 43q4 94 95 153.5t204 59.5q119 0 221 -14q-111 -88 -201 -176t-162.5 -191.5t-114.5 -226.5t-42 -262q0 -133 51 -265t151.5 -241.5t245 -174.5t322.5 -65q129 0 257 30t238.5 96.5 t178 179t67.5 270.5q0 49 -8 84q-4 23 -39 22q-12 0 -21 -4l-112 -61q-14 -8 -19.5 -20.5t-5.5 -26.5q0 -256 -117.5 -375t-351.5 -119q-127 0 -244.5 62.5t-206.5 166t-139.5 227.5t-50.5 239q0 242 100.5 440.5t325.5 376.5q51 -8 70 -11q285 -45 432 -45q80 0 168 22.5 t156 61.5q39 23 70.5 54.5t31.5 50.5q0 12 -11.5 22.5t-27.5 10.5q-10 0 -76 -19q-78 -23 -138 -36t-105 -13q-113 0 -326 39q-111 20 -181.5 29.5t-146.5 9.5q-172 0 -306 -41t-222 -107.5t-131 -143.5t-43 -148z" />
<glyph unicode="U" horiz-adv-x="1564" d="M35 1513q0 -23 16 -32l109 -68v-1257q-18 -4 -25 -4q-45 -8 -66.5 -19.5t-21.5 -40.5q0 -18 42 -37.5t140 -54.5q27 -10 39 -14l35 -13q125 -39 206 -59t144 -20q51 0 113.5 12t130.5 39q63 25 199 94q104 55 153 76v-41l-80 -64q-10 -10 -10 -16q0 -10 21 -23l200 -104 q23 -12 35 -12q16 0 29 12l67 76q18 20 19 37q0 25 -37 45l-68 41v1337l58 47q14 14 14 33q0 29 -41 53l-127 84q-27 18 -53 18q-12 0 -27 -14l-112 -90q-12 -12 -13 -21q0 -23 17 -32l108 -68v-1202q-35 -18 -102 -59q-115 -68 -191.5 -103t-152.5 -35q-98 0 -193.5 30 t-232.5 89l-41 17v1374q0 39 -41 63l-55 33q-27 18 -54 18q-12 0 -26 -14l-113 -90q-12 -12 -12 -21z" />
<glyph unicode="V" horiz-adv-x="1665" d="M35 1513q0 -23 16 -32l109 -68v-1206l-8 -4q-45 -23 -70 -42.5t-25 -44t32 -36.5t97 -25q78 -14 109 -26q43 -16 129 -56q104 -47 172 -72.5t113 -25.5q25 0 80 22.5t127.5 61.5t162.5 93t183 118q164 113 265 295t101 395q0 203 -68.5 349.5t-183 236.5t-254 131 t-284.5 41q-133 0 -262.5 -50t-239.5 -122v78q0 39 -41 63l-55 33q-27 18 -54 18q-12 0 -26 -14l-113 -90q-12 -12 -12 -21zM336 203v1167q84 61 186 93t254 32q121 0 241 -55.5t218 -153.5t155.5 -226t57.5 -265q0 -117 -48 -254.5t-132 -245.5q-90 -119 -207 -197 t-172 -78q-66 0 -127.5 21.5t-153.5 64.5q-82 39 -142 61.5t-130 35.5z" />
<glyph unicode="W" horiz-adv-x="2582" d="M35 1513q0 -23 16 -32l109 -68v-1206l-8 -4q-45 -23 -70 -42.5t-25 -44t32 -36.5t97 -25q78 -14 109 -26q43 -16 129 -56q104 -47 172 -72.5t113 -25.5q35 0 119.5 50t228.5 151q25 -10 92 -23q80 -14 111 -26q43 -16 129 -56q104 -47 171.5 -72.5t112.5 -25.5 q39 0 127 54.5t268 178.5q53 37 111 76q166 113 267.5 290t101.5 390q0 203 -62.5 349.5t-169 235.5t-238.5 129t-276 40q-123 0 -243.5 -43t-225.5 -109q-100 78 -228 116t-267 38q-133 0 -262.5 -50t-239.5 -122v78q0 39 -41 63l-55 33q-27 18 -54 18q-12 0 -26 -14 l-113 -90q-12 -12 -12 -21zM336 203v1167q84 61 186 93t254 32q119 0 232.5 -56.5t202.5 -154.5t140.5 -227t51.5 -269q0 -115 -44 -234.5t-128 -227.5q-47 -59 -110.5 -113.5t-128 -94.5t-118 -62.5t-77.5 -22.5q-63 0 -110.5 18.5t-113.5 57.5q-63 37 -114 59t-123 35z M1255 213q150 115 239 283t89 368q0 170 -45 300t-127 225q72 49 146.5 76.5t183.5 27.5q119 0 232.5 -56.5t202.5 -154.5t140 -227t51 -269q0 -115 -44 -234.5t-128 -227.5q-47 -59 -110.5 -113.5t-128 -94.5t-117.5 -62.5t-78 -22.5q-66 0 -121 20.5t-139 63.5 q-72 39 -125 61.5t-121 36.5z" />
<glyph unicode="X" horiz-adv-x="1597" d="M-453 -358q0 -29 14.5 -36t39.5 -7q170 0 323.5 73.5t293.5 214t271.5 335t270.5 456.5l438 -612q-2 -2 -14 -11q-18 -14 -29.5 -25.5t-11.5 -23.5q0 -18 38 -37.5t83 -36.5l75 -28q27 -10 62 -10q6 0 25.5 8t25.5 12l76 49q25 14 30 23.5t5 23.5q0 23 -25 40.5t-76 41.5 q-41 20 -62.5 33.5t-33.5 30.5l-514 698q186 344 343 513t261 169q55 0 68.5 10t13.5 37q0 29 -13.5 39t-62.5 10q-84 0 -171 -50t-174 -139t-173 -207t-178 -263l-356 487q2 2 14 10q18 14 29.5 26.5t11.5 23.5q0 18 -38 37.5t-83 35.5l-76 29q-27 10 -61 10q-6 0 -25.5 -8 t-25.5 -12l-76 -49q-25 -14 -30 -23.5t-5 -23.5q0 -23 27.5 -40.5t87.5 -43.5q47 -20 71.5 -35t36.5 -31l400 -557q-49 -82 -105 -180q-127 -221 -213 -359.5t-179 -257t-190.5 -189.5t-193.5 -71q-23 0 -68 8q-47 10 -69 11q-35 0 -69 -46.5t-34 -82.5z" />
<glyph unicode="Y" horiz-adv-x="1732" d="M14 -352q0 -14 14.5 -23.5t35 -13.5t38 -5t31.5 -1q221 0 400.5 128t311.5 330.5t223 412.5t204 517q55 147 88 232.5t67 152.5q76 156 142 156q16 0 43 -8q23 -8 33 -8q31 0 42 16t11 43q0 31 -15.5 46t-62.5 15q-92 0 -161.5 -41t-121 -112.5t-88.5 -156.5t-90 -228 q-41 -106 -63 -164q-68 -168 -185 -487q-29 -80 -47 -132l-506 1115q18 16 35 35.5t17 33.5q0 18 -17.5 38t-46.5 38l-82 51q-8 6 -25.5 8t-35.5 2q-29 0 -51 -20l-72 -57q-23 -18 -30 -28.5t-7 -23.5q0 -20 16.5 -33.5t49.5 -27.5q31 -14 50 -27.5t27 -31.5l568 -1252 q-53 -78 -102.5 -141.5t-104.5 -117.5t-117.5 -87t-126.5 -33q-23 0 -76 17q-53 18 -75 18q-18 0 -42 -15.5t-45.5 -40t-36 -49t-14.5 -40.5z" />
<glyph unicode="Z" horiz-adv-x="1417" d="M35 29q0 -113 29.5 -194t82 -129t117 -69.5t135.5 -21.5q186 0 364.5 88t319 235.5t220 325.5t79.5 350q0 109 -24.5 204t-79.5 169q-70 96 -178.5 155.5t-206.5 59.5h-39l418 340q39 31 39 53q0 12 -13.5 21.5t-42.5 9.5q-41 0 -122 -63q-23 -4 -48 -4q-61 0 -186 40 q-123 39 -186 39q-68 0 -150 -23.5t-160 -60.5q-63 -31 -95 -55t-32 -51q0 -14 17.5 -26.5t34.5 -12.5q20 0 47 23q16 12 28 18q31 14 72 24.5t74 10.5q53 0 91 -10.5t97 -32.5q47 -18 86 -31.5t95 -24.5l-324 -262q-25 -20 -42 -42.5t-17 -39.5q0 -28 51 -28q12 0 37 4h4h2 q6 0 28 4q45 8 72 8q96 0 172 -17.5t137 -76.5q-170 -20 -347 -102t-326.5 -208t-239.5 -281t-90 -316zM215 43q0 92 39 197.5t112.5 208t177 189.5t228.5 142l19 8q100 45 170.5 67t154.5 22q8 0 21.5 -34t26 -85t21.5 -103.5t9 -91.5q0 -59 -15.5 -139t-47 -167 t-76.5 -170t-103 -146q-84 -94 -201.5 -141.5t-238.5 -47.5q-133 0 -215 78t-82 213z" />
<glyph unicode="`" horiz-adv-x="319" d="M35 1612q0 -10 10 -39v-2q10 -49 43 -92q27 -33 74 -72q23 -16 28 -23q55 -47 82 -47q12 0 13 15q0 8 -4 20q-2 12 -2 19q0 39 -37 86q-20 25 -51 53.5t-56 46.5q-59 45 -92 45q-8 0 -8 -10z" />
<glyph unicode="a" horiz-adv-x="1120" d="M35 289q0 -184 130 -289.5t341 -105.5q76 0 167 40.5t177 102.5v-74l65 -67q14 -14 27 -15q18 0 37 15l88 71q18 20 18 36.5t-34 43.5l-2 2l-23 19v698q0 37 -14 37q-6 0 -15 -6l-120 -80h-3q-2 -2 -4 -2q-8 0 -20 8q-55 33 -117.5 52.5t-148.5 19.5q-92 0 -174 -34 t-160 -95q-94 -76 -154.5 -176.5t-60.5 -200.5zM188 381q0 145 87 215t245 70q70 0 139.5 -33t122.5 -86q6 -6 14.5 -6t22.5 8q12 6 18.5 6t12.5 -8v-400q-39 -59 -100.5 -96t-147.5 -37q-76 0 -149.5 29t-134 81t-95.5 118.5t-35 138.5z" />
<glyph unicode="b" horiz-adv-x="1011" d="M35 -4q0 -23 24 -29q88 -23 159 -43t110 -33q59 -18 81.5 -23t43.5 -5q68 0 141.5 31.5t150.5 89.5q102 78 167 181t65 230q0 190 -104.5 291.5t-270.5 101.5q-80 0 -160 -38.5t-141 -106.5v956q0 37 -14 37q-6 0 -15 -6l-120 -80q-27 -18 -27 -49v-1417l-78 -64 q-12 -10 -12 -24zM301 102v467q84 84 217 84q70 0 118 -21.5t93 -66.5q47 -45 74.5 -95t27.5 -126q0 -61 -20 -123.5t-56 -115t-79 -83t-86 -30.5q-37 0 -70 10t-88 33q-12 6 -20 8q-72 33 -111 59z" />
<glyph unicode="c" horiz-adv-x="937" d="M35 326q0 -199 113.5 -314.5t351.5 -115.5q106 0 200.5 39.5t184.5 109.5q4 4 8 6q10 10 10 16.5t-8 14.5l-18 20q-12 12 -20.5 12.5t-25.5 -16.5q-4 -2 -10 -8q-45 -35 -97 -54.5t-128 -19.5t-150.5 30t-136 81t-98.5 118.5t-37 139.5t23.5 130t62.5 99q78 80 172 80 q68 0 137.5 -36.5t132.5 -100.5q25 -25 48 -25q27 0 34 13q23 39 82 73q31 18 31 39q0 8 -16.5 23.5t-40.5 30.5q-121 71 -283 71h-4q-104 0 -199.5 -34.5t-167 -98t-111.5 -147.5t-40 -176z" />
<glyph unicode="d" horiz-adv-x="1120" d="M35 285q0 -184 130 -290t341 -106q76 0 167 41t177 103v-74l65 -68q14 -14 27 -14q18 0 37 14l88 72q18 20 18 36.5t-34 43.5l-2 2l-23 18v1526q0 37 -14 37q-6 0 -15 -6l-120 -80q-27 -18 -27 -47v-774q-90 72 -266 72q-94 0 -182.5 -39t-168.5 -107q-90 -76 -144 -170 t-54 -190zM188 377q0 145 87 215t245 70q70 0 139.5 -33t122.5 -86q6 -6 14.5 -6t22.5 8q12 6 18.5 6t12.5 -8v-400q-39 -59 -100.5 -96t-147.5 -37q-76 0 -149.5 29t-134 81t-95.5 118.5t-35 138.5z" />
<glyph unicode="e" horiz-adv-x="937" d="M35 330q0 -199 113.5 -314.5t351.5 -115.5q106 0 200.5 40t184.5 109q4 4 8 6q10 10 10 16.5t-8 14.5l-18 20q-12 12 -20.5 12.5t-25.5 -16.5q-4 -2 -10 -8q-45 -35 -97 -54.5t-128 -19.5q-98 0 -190.5 44.5t-147.5 117.5l608 441q31 25 31 39q0 8 -16 23.5t-41 29.5 q-121 71 -283 71h-4q-102 0 -191.5 -40.5t-166.5 -110.5q-76 -68 -118 -142.5t-42 -162.5zM195 362q0 72 29.5 131.5t77.5 103.5t100.5 66.5t95.5 22.5q61 0 103 -19.5t99 -68.5l-479 -352q-27 59 -26 116z" />
<glyph unicode="f" horiz-adv-x="608" d="M37 645q0 -16 31 -16h90v-953q0 -36 13 -36h1q6 0 14 6l121 80q27 18 27 49l2 854h22q27 0 37 16l62 109q6 10 6 16q0 16 -37 16h-90l-2 635q0 35 18.5 56.5t42.5 21.5q16 0 39 -16.5t35 -16.5q14 0 24.5 10.5t24.5 30.5l12 19q6 8 19 20q25 27 24 45q0 25 -33.5 36 t-68.5 11q-47 0 -96 -30.5t-99 -79.5q-53 -53 -85.5 -109.5t-32.5 -109.5v-523h-13q-33 0 -49 -28l-51 -88q-8 -14 -8 -25z" />
<glyph unicode="g" horiz-adv-x="1144" d="M35 289q0 -70 25.5 -130.5t67.5 -107.5t91 -82t98 -53q-45 -31 -70.5 -71t-25.5 -78q0 -74 84 -117t211 -43q82 0 190.5 23.5t186.5 76.5q102 68 159.5 135.5t57.5 141.5q0 25 -33 61q-35 39 -51 70v651q0 37 -14 37q-6 0 -15 -6l-120 -80h-3q-2 -2 -4 -2q-8 0 -20 8 q-55 33 -117.5 52.5t-148.5 19.5q-102 0 -192.5 -40t-170.5 -114q-84 -78 -135 -169t-51 -183zM188 381q0 145 87 215t245 70q70 0 139.5 -33t122.5 -86q6 -6 14.5 -6t22.5 8q12 6 18.5 6t12.5 -8v-400q-33 -51 -135.5 -86.5t-200.5 -35.5q-147 0 -236.5 101t-89.5 255z M352 -207q0 57 72 101q43 0 154 40q49 17 65 23q33 12 84 37q63 31 88 31q27 0 41 -9.5t37 -33.5l8 -9q20 -20 33.5 -35.5t13.5 -25.5q0 -25 -35.5 -77t-89.5 -85q-53 -31 -126.5 -45t-125.5 -14q-113 0 -166 28.5t-53 73.5z" />
<glyph unicode="h" horiz-adv-x="1052" d="M37 2q0 -12 20 -22l201 -105q23 -12 37 -12q16 0 27 12l67 76q18 20 19 37q0 25 -37 45l-70 39v522q121 84 268 84q88 0 127 -56.5t39 -144.5v-399l-78 -64q-10 -10 -10 -16q0 -12 21 -23l200 -104q23 -12 37 -12q16 0 27 12l67 76q18 20 19 37q0 25 -37 45l-70 39v397 q0 145 -70.5 230t-226.5 85q-166 0 -313 -96v913q0 37 -14 37q-6 0 -15 -6l-120 -80q-27 -18 -27 -49v-1417l-78 -64q-10 -10 -10 -16z" />
<glyph unicode="i" horiz-adv-x="442" d="M37 0q0 -12 20 -23l201 -104q23 -12 37 -12q16 0 27 12l67 76q18 20 19 37q0 25 -37 45l-70 39v608q0 39 -41 63l-55 33q-27 18 -53 19q-12 0 -27 -15l-68 -69q-12 -12 -12 -21q0 -16 16 -33l64 -59v-516l-78 -64q-10 -10 -10 -16zM53 897q0 -12 15 -31l16 -16 q12 -12 25 -12q27 0 57 24l203 168q26 24 26 45q0 16 -8 27l-27 35q-12 12 -26 12q-18 0 -51 -29l-197 -168q-33 -29 -33 -55z" />
<glyph unicode="j" horiz-adv-x="473" d="M35 -346q0 -27 33 -31q25 0 55.5 25.5t66.5 68.5q72 84 116 179.5t44 197.5v584q0 39 -41 63l-55 33q-27 18 -53 19q-12 0 -27 -15l-68 -69q-12 -12 -12 -21q0 -16 17 -33l63 -59v-516q0 -117 -9 -191.5t-44 -111.5q-10 -12 -21 -23q-37 -41 -50 -60.5t-15 -39.5z M102 897q0 -12 15 -31l16 -16q12 -12 25 -12q27 0 57 24l203 168q26 24 26 45q0 16 -8 27l-26 35q-12 12 -27 12q-18 0 -51 -29l-197 -168q-33 -29 -33 -55z" />
<glyph unicode="k" horiz-adv-x="962" d="M37 2q0 -12 20 -22l201 -105q23 -12 37 -12q16 0 27 12l67 76q18 20 19 37q0 25 -37 45l-70 39v118q41 -41 158 -47q33 -63 100 -149q43 -55 89.5 -83t107.5 -28q59 0 115.5 41t56.5 78q0 23 -7.5 29t-31.5 6q-14 0 -35 -10q-25 -14 -47 -15q-49 0 -82 34t-80 112 q0 2 -2 4q-4 6 -6 10q111 39 186.5 116t75.5 171q0 154 -90 241.5t-227 87.5q-74 0 -149 -30.5t-132 -81.5v921q0 37 -14 37q-6 0 -15 -6l-120 -80q-27 -18 -27 -49v-1417l-78 -64q-10 -10 -10 -16zM301 268v316q23 47 75 71.5t140 24.5q39 0 78 -16.5t72.5 -47t53 -69.5 t19.5 -84q0 -96 -69.5 -171t-177.5 -75q-76 0 -122 13.5t-69 37.5z" />
<glyph unicode="l" horiz-adv-x="442" d="M37 4q0 -12 20 -22l201 -105q23 -12 37 -12q16 0 27 12l67 76q18 20 19 37q0 25 -37 45l-70 39v358v1167q0 37 -14 37q-6 0 -15 -6l-120 -80q-27 -18 -27 -49v-1075v-342l-78 -64q-10 -10 -10 -16z" />
<glyph unicode="m" horiz-adv-x="1433" d="M37 6q0 -12 20 -22l201 -105q23 -12 37 -12q16 0 27 12l67 76q18 20 19 37q0 25 -37 45l-70 39v516q53 35 102.5 55.5t92.5 20.5q84 0 104.5 -43t20.5 -142v-399l-78 -64q-10 -10 -11 -16q0 -12 21 -22l201 -105q23 -12 37 -12q16 0 26 12l68 76q18 20 18 37q0 25 -37 45 l-69 39v397q0 47 -4 117q53 35 103 56.5t95 21.5q84 0 104.5 -43t20.5 -142v-399l-78 -64q-10 -10 -10 -16q0 -12 21 -22l200 -105q23 -12 37 -12q16 0 27 12l67 76q18 20 19 37q0 25 -37 45l-70 39v397q0 86 -4 136t-24.5 92t-65.5 64.5t-125 22.5q-74 0 -142.5 -32.5 t-150.5 -89.5q-18 61 -64 92.5t-138 31.5q-70 0 -136.5 -29.5t-140.5 -80.5v8q0 39 -41 64l-55 32q-27 18 -53 19q-12 0 -27 -15l-68 -69q-12 -12 -12 -21q0 -16 16 -32l64 -60v-516l-78 -63q-10 -10 -10 -17z" />
<glyph unicode="n" horiz-adv-x="1034" d="M37 4q0 -12 20 -22l201 -105q23 -12 37 -12q16 0 27 12l67 76q18 20 19 37q0 25 -37 45l-70 39v532q111 72 250 72q88 0 127 -56.5t39 -144.5v-399l-78 -64q-10 -10 -10 -16q0 -12 20 -23l201 -104q23 -12 37 -12q16 0 26 12l68 76q18 20 18 37q0 25 -36 45l-70 39v397 q0 145 -70.5 230t-226.5 85t-297 -84q-6 31 -39 49l-55 33q-27 18 -53 19q-12 0 -27 -15l-68 -69q-12 -12 -12 -21q0 -16 16 -33l64 -59v-516l-78 -64q-10 -10 -10 -16z" />
<glyph unicode="o" horiz-adv-x="1107" d="M35 330q0 -197 138 -328t378 -131q106 0 201.5 36t167 99.5t112.5 147.5t41 176q0 197 -139 326.5t-381 129.5q-104 0 -199.5 -34.5t-167 -98t-111.5 -147.5t-40 -176zM199 354q0 154 78.5 243t228.5 89q74 0 147.5 -37t135 -100.5t96.5 -139t35 -147.5q0 -127 -77 -212 t-222 -85q-74 0 -150 32t-137.5 88t-98 127t-36.5 142z" />
<glyph unicode="p" horiz-adv-x="1017" d="M37 692q0 -16 16 -33l64 -59v-907q0 -88 37 -88q23 0 53 16l51 33q35 20 35 63v179q78 -18 168 -19q106 0 201.5 36t167 99.5t112.5 147.5t41 176q0 94 -30.5 177t-85 145.5t-128 98.5t-155.5 36q-53 0 -110.5 -16.5t-123.5 -43.5l-14 -6q-33 -12 -49 -20q-10 23 -35 38 l-55 33q-27 18 -54 19q-12 0 -26 -15l-68 -69q-12 -12 -12 -21zM293 104v500q121 68 221 68q55 -2 111.5 -29t102.5 -75t73.5 -111.5t27.5 -134.5q0 -141 -84 -240q-41 -49 -87 -80t-103 -31q-113 0 -197 60q-41 29 -65 73z" />
<glyph unicode="q" horiz-adv-x="1060" d="M35 276q0 -184 130 -289.5t341 -105.5q76 0 167 41t177 103v-334q0 -45 5 -66.5t22 -21.5q14 0 41 18l63 43q45 31 45 107v983q0 37 -14 37q-6 0 -15 -7l-120 -79h-3q-2 -2 -4 -3q-8 0 -20 9q-55 33 -117.5 52t-148.5 19q-92 0 -174 -33.5t-160 -95.5 q-94 -76 -154.5 -176t-60.5 -201zM188 369q0 145 87 214.5t245 69.5q70 0 139.5 -32.5t122.5 -85.5q6 -6 14.5 -6.5t22.5 8.5q12 6 18.5 6t12.5 -8v-400q-39 -59 -100.5 -96t-147.5 -37q-76 0 -149.5 28.5t-134 81t-95.5 119t-35 138.5z" />
<glyph unicode="r" horiz-adv-x="659" d="M37 2q0 -12 20 -22l201 -105q23 -12 37 -12q16 0 27 12l67 76q18 20 19 37q0 25 -37 45l-70 39v526q43 33 82 33q23 0 38 -10.5t34 -32.5q29 -33 49 -33t53 27q8 8 16 14q8 4 15 8q18 10 27.5 20.5t9.5 30.5q0 33 -41 70q-23 20 -48.5 35.5t-48.5 15.5q-47 0 -84.5 -20.5 t-89.5 -63.5l-12 -10q0 37 -41 61l-55 33q-27 18 -53 19q-12 0 -27 -15l-68 -69q-12 -12 -12 -21q0 -16 16 -33l64 -59v-516l-78 -64q-10 -10 -10 -16z" />
<glyph unicode="s" horiz-adv-x="825" d="M35 33q0 -29 34.5 -56.5t88 -50t111 -36t104.5 -13.5q68 0 140.5 16.5t136 49t102.5 83.5t39 119q0 76 -32 132.5t-84 97.5t-105.5 65.5t-141.5 59.5q-100 39 -147.5 67.5t-47.5 69.5q0 39 37 56.5t80 17.5q51 0 85 -26t69 -69q43 -51 63 -51q25 0 62 17l16 8l6 2 q33 14 51.5 27.5t18.5 33.5q0 27 -31 51.5t-80 43t-102 28.5t-94 10q-326 0 -326 -188q0 -94 54.5 -142t166.5 -98q25 -10 76 -30q143 -57 214 -103.5t71 -113.5q0 -45 -45 -87t-93 -42q-109 0 -175 30.5t-121 77.5q-33 29 -43 29q-27 0 -64 -15l-8 -4h-2 q-39 -16 -61.5 -31.5t-22.5 -35.5z" />
<glyph unicode="t" horiz-adv-x="499" d="M35 666q0 -16 9 -24.5t22 -8.5h59v-551l-78 -64q-10 -10 -10 -16q0 -12 20 -22l201 -105q23 -12 37 -12q16 0 27 12l67 76q18 20 19 37q0 25 -37 45l-70 39v563h25q37 0 60.5 15.5t43.5 41.5q4 4 8 10q27 37 27 58q0 12 -14.5 20t-32.5 8h-117v222q-2 16 -8 28 q-8 14 -17 15q-10 0 -21 -22.5t-34 -78.5q-10 -27 -14 -37q-18 -45 -34.5 -71.5t-47.5 -61.5q-33 -37 -61.5 -72.5t-28.5 -43.5z" />
<glyph unicode="u" horiz-adv-x="1011" d="M37 692q0 -16 16 -33l64 -59v-516q-27 -14 -47.5 -34t-20.5 -34q0 -16 22.5 -26t73.5 -23l58 -16q20 -6 61 -23q96 -39 148 -39q35 0 83 19.5t128 60.5q51 25 71 35v-4q0 -16 17.5 -42t31.5 -34l84 -47q23 -12 37 -12q16 0 27 12l67 76q18 20 19 37q0 25 -37 45l-70 39 v528l35 45q10 14 10 29q0 12 -20.5 27.5t-50.5 33.5l-15 8l-55 33q-27 18 -53 19q-12 0 -27 -15l-67 -69q-12 -12 -13 -21q0 -16 17 -33l63 -59v-524q-84 -55 -188 -56q-45 0 -84 13.5t-92 40.5q-23 10 -37 16v592q0 39 -41 63l-55 33q-27 18 -54 19q-12 0 -26 -15l-68 -69 q-12 -12 -12 -21z" />
<glyph unicode="v" horiz-adv-x="1001" d="M37 690q0 -16 16 -33l64 -59v-516q-27 -14 -47.5 -33.5t-20.5 -34.5q0 -16 22.5 -26.5t73.5 -22.5l58 -16q23 -8 63 -23q63 -25 103.5 -37t74.5 -12q45 0 100.5 31t143.5 90l4 4q133 92 204 195.5t71 230.5q0 82 -35 149.5t-93.5 113.5t-127 70.5t-136.5 24.5 q-59 0 -104 -14t-106 -45q-47 -25 -74 -35q-8 35 -39 51l-55 33q-27 18 -54 19q-12 0 -26 -15l-68 -69q-12 -12 -12 -21zM293 88v512q18 8 51 23q45 23 77 33t71 10q53 0 108 -25t101.5 -69t74 -100t27.5 -118q0 -80 -31 -144.5t-82 -117.5q-41 -41 -85 -67.5t-68 -26.5 q-43 0 -88.5 17.5t-106.5 47.5q-33 18 -49 25z" />
<glyph unicode="w" horiz-adv-x="1339" d="M-12 4q0 -12 20 -22l201 -105q23 -12 37 -12q16 0 26 12l68 76q18 20 18 37q0 25 -36 45l-70 39v532l4 4q53 33 92 51.5t86 18.5q14 0 32.5 -27.5t18.5 -58.5v-522q-27 -14 -47 -34t-20 -34q0 -23 40 -37t113 -28q41 -8 119 -29q104 -29 150 -29q33 0 65.5 19.5 t83.5 60.5q49 39 76 57q127 88 183.5 180.5t56.5 223.5q0 84 -30 149.5t-82 111.5t-116.5 69.5t-132.5 23.5q-59 0 -104 -14t-107 -45q-47 -25 -74 -35q-8 35 -38 51l-56 33q-28 18 -53 18q-53 0 -106.5 -19.5t-129.5 -55.5q-18 -8 -26 -13q-6 31 -39 49l-55 33 q-27 18 -54 19q-12 0 -26 -15l-68 -69q-12 -12 -12 -21q0 -16 16 -33l64 -59v-516l-78 -64q-10 -10 -10 -16zM662 78v512q18 8 51 22q45 23 76.5 33t70.5 10q53 0 106.5 -22.5t94.5 -63.5t65.5 -96t24.5 -117q0 -86 -20.5 -145t-65.5 -107l-23 -22q-35 -37 -53 -50.5 t-37 -13.5q-23 0 -56.5 7.5t-82.5 21.5q-53 14 -89 22.5t-62 8.5z" />
<glyph unicode="x" horiz-adv-x="774" d="M35 -354q0 -10 12 -20.5t23 -10.5q23 0 59.5 25.5t77.5 69.5t81 95.5t70 102.5l33 -17q23 -12 39 -12q14 0 25 12l49 52q18 20 18 37q0 25 -37 45l-69 38v177h69q41 0 60 36l35 68q8 14 8 25q0 32 -66 32h-4h-102v189q43 33 82 33q23 0 38 -10.5t33 -32.5 q29 -33 49.5 -33t53.5 26q8 8 16 15q6 4 14 8q18 10 27.5 20.5t9.5 30.5q0 33 -41 70q-23 20 -48 35.5t-48 15.5q-47 0 -85 -20.5t-89 -63.5l-12 -10q0 37 -41 61l-56 33q-27 18 -53 18q-12 0 -26 -14l-68 -70q-12 -12 -12 -20q0 -16 16 -33l64 -59v-189h-58q-53 0 -78 -39 l-32 -49q-16 -23 -17 -43q4 -30 62 -30h4h119v-117q0 -57 -20.5 -155.5t-55.5 -155.5q-27 -45 -84 -101q-45 -45 -45 -65z" />
<glyph unicode="y" horiz-adv-x="950" d="M37 692q0 -16 16 -33l64 -59v-516q-27 -14 -47.5 -33.5t-20.5 -34.5q0 -16 22.5 -26t73.5 -23l58 -16q18 -6 59 -22.5t62 -22.5l-9 -10q-37 -35 -55 -63t-18 -69q0 -66 84 -118t192 -52q63 0 133 30t129.5 81t95 112.5t35.5 119.5q0 31 -18 86q-23 59 -23 96v483l35 45 q10 14 10 29q0 12 -20.5 27.5t-50.5 33.5l-15 8l-55 33q-27 18 -53 19q-12 0 -27 -15l-67 -69q-12 -12 -13 -21q2 -18 17 -33l63 -59v-524q-84 -55 -188 -56q-45 0 -84 13.5t-92 40.5q-23 10 -37 16v592q0 39 -41 63l-55 33q-27 18 -54 19q-12 0 -26 -15l-68 -69 q-12 -12 -12 -21zM422 -186q0 27 30.5 53.5t88.5 60.5q35 20 84 41t69 21q23 0 51.5 -44t28.5 -81q0 -78 -52 -114t-118 -36q-80 0 -131 20.5t-51 78.5z" />
<glyph unicode="z" horiz-adv-x="782" d="M35 -211q0 -68 47 -122t104 -54q106 2 213 65q106 66 195 177q72 88 113 177t41 185q0 104 -37 166.5t-107 122.5q-31 25 -63.5 33t-67.5 10q0 18 33 43.5t96 66.5l21 15q37 23 55 41t18 40.5t-9 29t-40 6.5h-301q-31 0 -66.5 -18.5t-72.5 -51.5q-33 -27 -53.5 -52.5 t-22.5 -50.5q0 -35 16 -34q14 2 41 20q31 20 68 33.5t102 13.5q20 0 46 -4t45 -12q-8 -10 -29 -24.5t-64 -43.5q-70 -45 -109.5 -75.5t-39.5 -53.5q0 -14 15.5 -24.5t31.5 -10.5t61 4.5t62 4.5q47 0 80 -35l-19 -12q-57 -37 -116.5 -83t-126 -119t-113.5 -168t-47 -206z M190 -143q0 59 19.5 129.5t58.5 132.5q53 84 130 148.5t110 66.5q33 -2 50 -67.5t17 -131.5q0 -70 -14 -142.5t-45 -113.5q-53 -72 -106.5 -112.5t-114.5 -40.5q-47 0 -76 42t-29 89z" />
<glyph unicode="&#xad;" horiz-adv-x="747" d="M35 397q0 -20 53 -28.5t119 -8.5q72 0 171 19.5t185 50.5q57 20 103.5 55t46.5 47q0 25 -33 25q-4 0 -51 -12q-78 -20 -137.5 -33.5t-108.5 -13.5q-43 0 -141 16q-61 10 -80 10t-47 -30q-8 -10 -13 -15l-10 -10q-27 -25 -42 -43t-15 -29z" />
<glyph unicode="&#xe4;" horiz-adv-x="1120" d="M35 289q0 -184 130 -289.5t341 -105.5q76 0 167 40.5t177 102.5v-74l65 -67q14 -14 27 -15q18 0 37 15l88 71q18 20 18 36.5t-34 43.5l-2 2l-23 19v698q0 37 -14 37q-6 0 -15 -6l-120 -80h-3q-2 -2 -4 -2q-8 0 -20 8q-55 33 -117.5 52.5t-148.5 19.5q-92 0 -174 -34 t-160 -95q-94 -76 -154.5 -176.5t-60.5 -200.5zM188 381q0 145 87 215t245 70q70 0 139.5 -33t122.5 -86q6 -6 14.5 -6t22.5 8q12 6 18.5 6t12.5 -8v-400q-39 -59 -100.5 -96t-147.5 -37q-76 0 -149.5 29t-134 81t-95.5 118.5t-35 138.5zM317 889q0 -12 15 -31l16 -16 q12 -12 25 -13q27 0 57 25l203 168q27 25 26 47q0 14 -8 25l-26 34q-12 12 -27 13q-18 0 -51 -29l-197 -168q-33 -29 -33 -55zM702 887q0 -12 15 -31l16 -16q12 -12 25 -13q27 0 57 25l203 168q27 25 26 47q0 14 -8 25l-26 34q-12 12 -27 13q-18 0 -51 -29l-197 -168 q-33 -29 -33 -55z" />
<glyph unicode="&#xf6;" horiz-adv-x="1107" d="M35 330q0 -197 138 -328t378 -131q106 0 201.5 36t167 99.5t112.5 147.5t41 176q0 197 -139 326.5t-381 129.5q-104 0 -199.5 -34.5t-167 -98t-111.5 -147.5t-40 -176zM199 354q0 154 78.5 243t228.5 89q74 0 147.5 -37t135 -100.5t96.5 -139t35 -147.5q0 -127 -77 -212 t-222 -85q-74 0 -150 32t-137.5 88t-98 127t-36.5 142zM317 889q0 -12 15 -31l16 -16q12 -12 25 -13q27 0 57 25l203 168q27 25 26 47q0 14 -8 25l-26 34q-12 12 -27 13q-18 0 -51 -29l-197 -168q-33 -29 -33 -55zM702 887q0 -12 15 -31l16 -16q12 -12 25 -13q27 0 57 25 l203 168q27 25 26 47q0 14 -8 25l-26 34q-12 12 -27 13q-18 0 -51 -29l-197 -168q-33 -29 -33 -55z" />
<glyph unicode="&#x2000;" horiz-adv-x="823" />
<glyph unicode="&#x2001;" horiz-adv-x="1647" />
<glyph unicode="&#x2002;" horiz-adv-x="823" />
<glyph unicode="&#x2003;" horiz-adv-x="1647" />
<glyph unicode="&#x2004;" horiz-adv-x="549" />
<glyph unicode="&#x2005;" horiz-adv-x="411" />
<glyph unicode="&#x2006;" horiz-adv-x="274" />
<glyph unicode="&#x2007;" horiz-adv-x="274" />
<glyph unicode="&#x2008;" horiz-adv-x="205" />
<glyph unicode="&#x2009;" horiz-adv-x="329" />
<glyph unicode="&#x200a;" horiz-adv-x="91" />
<glyph unicode="&#x2010;" horiz-adv-x="747" d="M35 397q0 -20 53 -28.5t119 -8.5q72 0 171 19.5t185 50.5q57 20 103.5 55t46.5 47q0 25 -33 25q-4 0 -51 -12q-78 -20 -137.5 -33.5t-108.5 -13.5q-43 0 -141 16q-61 10 -80 10t-47 -30q-8 -10 -13 -15l-10 -10q-27 -25 -42 -43t-15 -29z" />
<glyph unicode="&#x2011;" horiz-adv-x="747" d="M35 397q0 -20 53 -28.5t119 -8.5q72 0 171 19.5t185 50.5q57 20 103.5 55t46.5 47q0 25 -33 25q-4 0 -51 -12q-78 -20 -137.5 -33.5t-108.5 -13.5q-43 0 -141 16q-61 10 -80 10t-47 -30q-8 -10 -13 -15l-10 -10q-27 -25 -42 -43t-15 -29z" />
<glyph unicode="&#x2012;" horiz-adv-x="747" d="M35 397q0 -20 53 -28.5t119 -8.5q72 0 171 19.5t185 50.5q57 20 103.5 55t46.5 47q0 25 -33 25q-4 0 -51 -12q-78 -20 -137.5 -33.5t-108.5 -13.5q-43 0 -141 16q-61 10 -80 10t-47 -30q-8 -10 -13 -15l-10 -10q-27 -25 -42 -43t-15 -29z" />
<glyph unicode="&#x2013;" horiz-adv-x="1093" d="M35 397q0 -20 80 -28.5t180 -8.5q109 0 258.5 19.5t278.5 50.5q87 20 157 55t70 47q0 25 -50 25q-6 0 -77 -12q-118 -20 -207.5 -33.5t-163.5 -13.5q-65 0 -213 16q-92 10 -121 10t-71 -30q-12 -10 -20 -15l-15 -10q-41 -25 -63.5 -43t-22.5 -29z" />
<glyph unicode="&#x2014;" horiz-adv-x="2117" d="M35 397q0 -20 160 -28.5t360 -8.5q217 0 516 19.5t559 50.5q172 20 312.5 55t140.5 47q0 25 -100 25q-12 0 -154 -12q-235 -20 -415 -33.5t-328 -13.5q-130 0 -426 16q-184 10 -241.5 10t-141.5 -30q-25 -10 -40 -15l-30 -10q-81 -25 -126.5 -43t-45.5 -29z" />
<glyph unicode="&#x202f;" horiz-adv-x="329" />
<glyph unicode="&#x205f;" horiz-adv-x="411" />
<glyph unicode="&#x25fc;" horiz-adv-x="788" d="M0 0v788h788v-788h-788z" />
</font>
</defs>
</svg>
